<svg width="1024" height="1024" viewBox="0 0 1024 1024" fill="none" xmlns="http://www.w3.org/2000/svg">
<path d="M512 237.449C677.552 237.449 812 371.898 812 537.448C812 621.022 777.736 696.669 722.505 751.095L771.347 799.734C779.672 807.817 779.672 820.794 771.593 828.631C763.51 836.959 750.284 836.959 741.958 828.388L691.405 777.833C641.351 815.268 579.241 837.448 512 837.448C444.759 837.448 382.648 815.268 332.594 777.833L282.041 828.388C273.47 836.959 260.49 836.959 252.408 828.631C244.327 820.794 244.327 807.817 252.653 799.734L301.494 751.094C246.263 696.668 212 621.022 212 537.448C212 371.898 346.449 237.449 512 237.449ZM580.646 706.143L548.387 738.176C543.488 742.999 544.317 749.028 548.236 752.496C551.854 755.586 557.206 755.812 561.954 751.215L592.932 720.538C595.569 717.9 596.097 717.297 597.68 713.303L610.869 679.311L607.854 677.652C600.544 673.583 595.419 669.663 592.103 665.292L580.646 706.143ZM651.117 608.01C642.525 596.101 631.823 591.353 614.337 592.635L580.646 595.046C575.445 595.423 571.753 598.89 571.074 604.316L566.552 638.46C565.723 644.339 568.586 648.409 573.862 648.937C579.063 649.464 582.455 646.374 583.284 640.57L587.43 612.532L600.996 611.628C604.162 611.327 607.026 613.587 605.971 617.205L598.207 644.716C593.534 660.77 604.011 665.141 612.302 669.814L649.008 690.466L625.266 710.891C620.291 715.112 620.291 720.689 623.382 724.156C626.623 727.774 632.2 728.377 637.325 724.006L670.337 695.893C674.784 692.048 674.03 683.908 668.679 680.441L632.728 656.851L639.887 631.978C640.867 628.285 645.012 627.832 647.198 630.998L657.75 646.374C660.238 649.917 664.684 651.272 668.755 649.464L699.053 635.896C704.404 633.56 706.364 628.963 704.028 624.14C701.767 619.391 697.169 617.959 691.894 620.296L667.774 630.998L651.117 608.01ZM644.862 545C633.33 545 624.06 554.271 624.06 565.803C624.06 577.259 633.33 586.529 644.862 586.529C656.394 586.529 665.589 577.259 665.589 565.803C665.589 554.271 656.394 545 644.862 545ZM511.754 332.959C501.224 332.959 492.898 341.286 492.898 351.816V531.816H362.122C351.347 531.817 343.021 540.142 343.021 550.674C343.021 561.447 351.347 569.775 362.122 569.775H511.754C522.53 569.775 530.855 561.447 530.855 550.674V351.816C530.855 341.286 522.53 332.959 511.754 332.959ZM323.184 187C341.796 187 362.367 192.388 374.367 203.163C379.755 208.061 382.938 213.449 382.938 220.062C382.938 225.204 380.244 230.102 375.102 234.021L271.51 310.429C267.102 313.857 263.918 314.592 259.021 314.592C251.184 314.592 244.816 309.694 241.388 302.102C238.204 295 236.49 283.734 236.49 272.714C236.49 224.959 274.449 187 323.184 187ZM700.816 187C749.306 187 787.509 224.959 787.509 272.714C787.509 283.734 785.797 295.245 782.366 302.102C778.938 309.449 772.816 314.592 764.733 314.592C760.082 314.592 756.654 313.857 752.245 310.429L648.898 234.021C643.755 230.102 641.062 225.204 641.062 220.062C641.062 213.449 644 208.061 649.633 203.163C661.632 192.388 682.204 187 700.816 187Z" fill="black" fill-opacity="0.85"/>
</svg>
